<svg xmlns="http://www.w3.org/2000/svg" xmlns:xlink="http://www.w3.org/1999/xlink" width="1024" zoomAndPan="magnify" viewBox="0 0 768 767.999994" height="1024" preserveAspectRatio="xMidYMid meet" version="1.0"><metadata><ContainsAiGeneratedContent>Yes</ContainsAiGeneratedContent></metadata><defs><g/></defs><rect x="-76.8" width="921.6" fill="#ffffff" y="-76.799999" height="921.599993" fill-opacity="1"/><rect x="-76.8" width="921.6" fill="#000000" y="-76.799999" height="921.599993" fill-opacity="1"/><g fill="#d15b9b" fill-opacity="1"><g transform="translate(57.264669, 377.040237)"><g><path d="M 65.953125 -64.484375 L 65.953125 0 L 56.09375 0 L 20.546875 -43.65625 L 20.546875 0 L 8.65625 0 L 8.65625 -64.484375 L 18.515625 -64.484375 L 54.0625 -20.8125 L 54.0625 -64.484375 Z M 65.953125 -64.484375 "/></g></g></g><g fill="#d15b9b" fill-opacity="1"><g transform="translate(131.86371, 377.040237)"><g><path d="M 53.796875 -24.3125 C 53.796875 -23.519531 53.734375 -22.382812 53.609375 -20.90625 L 15.015625 -20.90625 C 15.691406 -17.28125 17.457031 -14.410156 20.3125 -12.296875 C 23.164062 -10.179688 26.710938 -9.125 30.953125 -9.125 C 36.347656 -9.125 40.796875 -10.90625 44.296875 -14.46875 L 50.46875 -7.375 C 48.257812 -4.726562 45.46875 -2.726562 42.09375 -1.375 C 38.71875 -0.03125 34.910156 0.640625 30.671875 0.640625 C 25.265625 0.640625 20.503906 -0.429688 16.390625 -2.578125 C 12.273438 -4.722656 9.097656 -7.710938 6.859375 -11.546875 C 4.617188 -15.390625 3.5 -19.738281 3.5 -24.59375 C 3.5 -29.382812 4.585938 -33.695312 6.765625 -37.53125 C 8.953125 -41.375 11.976562 -44.367188 15.84375 -46.515625 C 19.707031 -48.660156 24.066406 -49.734375 28.921875 -49.734375 C 33.710938 -49.734375 37.992188 -48.675781 41.765625 -46.5625 C 45.546875 -44.445312 48.492188 -41.46875 50.609375 -37.625 C 52.734375 -33.789062 53.796875 -29.351562 53.796875 -24.3125 Z M 28.921875 -40.53125 C 25.234375 -40.53125 22.113281 -39.4375 19.5625 -37.25 C 17.019531 -35.070312 15.472656 -32.171875 14.921875 -28.546875 L 42.828125 -28.546875 C 42.335938 -32.109375 40.832031 -34.992188 38.3125 -37.203125 C 35.800781 -39.421875 32.671875 -40.53125 28.921875 -40.53125 Z M 28.921875 -40.53125 "/></g></g></g><g fill="#d15b9b" fill-opacity="1"><g transform="translate(189.148402, 377.040237)"><g><path d="M 55.171875 -49.1875 L 55.171875 0 L 44.21875 0 L 44.21875 -6.265625 C 42.375 -4.054688 40.066406 -2.351562 37.296875 -1.15625 C 34.535156 0.0390625 31.5625 0.640625 28.375 0.640625 C 21.800781 0.640625 16.625 -1.179688 12.84375 -4.828125 C 9.070312 -8.484375 7.1875 -13.90625 7.1875 -21.09375 L 7.1875 -49.1875 L 18.703125 -49.1875 L 18.703125 -22.65625 C 18.703125 -18.238281 19.695312 -14.9375 21.6875 -12.75 C 23.6875 -10.570312 26.53125 -9.484375 30.21875 -9.484375 C 34.332031 -9.484375 37.597656 -10.753906 40.015625 -13.296875 C 42.441406 -15.847656 43.65625 -19.519531 43.65625 -24.3125 L 43.65625 -49.1875 Z M 55.171875 -49.1875 "/></g></g></g><g fill="#d15b9b" fill-opacity="1"><g transform="translate(251.866863, 377.040237)"><g><path d="M 18.515625 -42 C 21.828125 -47.15625 27.660156 -49.734375 36.015625 -49.734375 L 36.015625 -38.78125 C 35.035156 -38.957031 34.144531 -39.046875 33.34375 -39.046875 C 28.863281 -39.046875 25.363281 -37.738281 22.84375 -35.125 C 20.320312 -32.519531 19.0625 -28.765625 19.0625 -23.859375 L 19.0625 0 L 7.546875 0 L 7.546875 -49.1875 L 18.515625 -49.1875 Z M 18.515625 -42 "/></g></g></g><g fill="#d15b9b" fill-opacity="1"><g transform="translate(290.547846, 377.040237)"><g><path d="M 29.65625 0.640625 C 24.6875 0.640625 20.203125 -0.429688 16.203125 -2.578125 C 12.210938 -4.722656 9.097656 -7.710938 6.859375 -11.546875 C 4.617188 -15.390625 3.5 -19.738281 3.5 -24.59375 C 3.5 -29.445312 4.617188 -33.773438 6.859375 -37.578125 C 9.097656 -41.390625 12.210938 -44.367188 16.203125 -46.515625 C 20.203125 -48.660156 24.6875 -49.734375 29.65625 -49.734375 C 34.695312 -49.734375 39.210938 -48.660156 43.203125 -46.515625 C 47.191406 -44.367188 50.304688 -41.390625 52.546875 -37.578125 C 54.785156 -33.773438 55.90625 -29.445312 55.90625 -24.59375 C 55.90625 -19.738281 54.785156 -15.390625 52.546875 -11.546875 C 50.304688 -7.710938 47.191406 -4.722656 43.203125 -2.578125 C 39.210938 -0.429688 34.695312 0.640625 29.65625 0.640625 Z M 29.65625 -9.21875 C 33.894531 -9.21875 37.394531 -10.628906 40.15625 -13.453125 C 42.914062 -16.273438 44.296875 -19.988281 44.296875 -24.59375 C 44.296875 -29.195312 42.914062 -32.910156 40.15625 -35.734375 C 37.394531 -38.554688 33.894531 -39.96875 29.65625 -39.96875 C 25.414062 -39.96875 21.929688 -38.554688 19.203125 -35.734375 C 16.472656 -32.910156 15.109375 -29.195312 15.109375 -24.59375 C 15.109375 -19.988281 16.472656 -16.273438 19.203125 -13.453125 C 21.929688 -10.628906 25.414062 -9.21875 29.65625 -9.21875 Z M 29.65625 -9.21875 "/></g></g></g><g fill="#0099c8" fill-opacity="1"><g transform="translate(349.952158, 377.040237)"><g><path d="M 35.1875 -64.484375 C 40.769531 -64.484375 45.632812 -63.5625 49.78125 -61.71875 C 53.925781 -59.875 57.101562 -57.234375 59.3125 -53.796875 C 61.53125 -50.359375 62.640625 -46.273438 62.640625 -41.546875 C 62.640625 -36.878906 61.53125 -32.804688 59.3125 -29.328125 C 57.101562 -25.859375 53.925781 -23.203125 49.78125 -21.359375 C 45.632812 -19.523438 40.769531 -18.609375 35.1875 -18.609375 L 20.625 -18.609375 L 20.625 0 L 8.65625 0 L 8.65625 -64.484375 Z M 34.640625 -28.734375 C 39.859375 -28.734375 43.816406 -29.835938 46.515625 -32.046875 C 49.210938 -34.265625 50.5625 -37.429688 50.5625 -41.546875 C 50.5625 -45.660156 49.210938 -48.820312 46.515625 -51.03125 C 43.816406 -53.238281 39.859375 -54.34375 34.640625 -54.34375 L 20.625 -54.34375 L 20.625 -28.734375 Z M 34.640625 -28.734375 "/></g></g></g><g fill="#0099c8" fill-opacity="1"><g transform="translate(416.814994, 377.040237)"><g><path d="M 65.953125 -64.484375 L 65.953125 0 L 53.96875 0 L 53.96875 -27.640625 L 20.625 -27.640625 L 20.625 0 L 8.65625 0 L 8.65625 -64.484375 L 20.625 -64.484375 L 20.625 -37.859375 L 53.96875 -37.859375 L 53.96875 -64.484375 Z M 65.953125 -64.484375 "/></g></g></g><g fill="#0099c8" fill-opacity="1"><g transform="translate(491.414035, 377.040237)"><g><path d="M 50.46875 -14.921875 L 18.234375 -14.921875 L 11.875 0 L -0.453125 0 L 28.546875 -64.484375 L 40.34375 -64.484375 L 69.453125 0 L 56.921875 0 Z M 46.515625 -24.3125 L 34.359375 -52.5 L 22.296875 -24.3125 Z M 46.515625 -24.3125 "/></g></g></g><g fill="#0099c8" fill-opacity="1"><g transform="translate(560.395126, 377.040237)"><g><path d="M 50.84375 0 L 37.671875 -18.875 C 37.117188 -18.820312 36.289062 -18.796875 35.1875 -18.796875 L 20.625 -18.796875 L 20.625 0 L 8.65625 0 L 8.65625 -64.484375 L 35.1875 -64.484375 C 40.769531 -64.484375 45.632812 -63.5625 49.78125 -61.71875 C 53.925781 -59.875 57.101562 -57.234375 59.3125 -53.796875 C 61.53125 -50.359375 62.640625 -46.273438 62.640625 -41.546875 C 62.640625 -36.691406 61.457031 -32.515625 59.09375 -29.015625 C 56.726562 -25.515625 53.332031 -22.90625 48.90625 -21.1875 L 63.734375 0 Z M 50.5625 -41.546875 C 50.5625 -45.660156 49.210938 -48.820312 46.515625 -51.03125 C 43.816406 -53.238281 39.859375 -54.34375 34.640625 -54.34375 L 20.625 -54.34375 L 20.625 -28.640625 L 34.640625 -28.640625 C 39.859375 -28.640625 43.816406 -29.757812 46.515625 -32 C 49.210938 -34.25 50.5625 -37.429688 50.5625 -41.546875 Z M 50.5625 -41.546875 "/></g></g></g><g fill="#0099c8" fill-opacity="1"><g transform="translate(627.718449, 377.040237)"><g><path d="M 67.890625 0 L 67.796875 -42.734375 L 46.609375 -7.375 L 41.265625 -7.375 L 20.078125 -42.1875 L 20.078125 0 L 8.65625 0 L 8.65625 -64.484375 L 18.515625 -64.484375 L 44.125 -21.734375 L 69.265625 -64.484375 L 79.125 -64.484375 L 79.21875 0 Z M 67.890625 0 "/></g></g></g><g fill="#0099c8" fill-opacity="1"><g transform="translate(267.698252, 462.540232)"><g><path d="M 24.59375 -48.453125 L 29.6875 -48.453125 L 51.609375 0 L 45.765625 0 L 40.125 -12.71875 L 13.953125 -12.71875 L 8.25 0 L 2.6875 0 Z M 38 -17.59375 L 27.078125 -42.125 L 16.078125 -17.59375 Z M 38 -17.59375 "/></g></g></g><g fill="#0099c8" fill-opacity="1"><g transform="translate(333.383754, 462.540232)"><g><path d="M 28.796875 0.828125 C 25.316406 0.828125 22.109375 0.1875 19.171875 -1.09375 C 16.242188 -2.382812 13.703125 -4.140625 11.546875 -6.359375 C 9.390625 -8.578125 7.703125 -11.195312 6.484375 -14.21875 C 5.273438 -17.25 4.671875 -20.484375 4.671875 -23.921875 L 4.671875 -24.046875 C 4.671875 -27.441406 5.273438 -30.648438 6.484375 -33.671875 C 7.703125 -36.691406 9.390625 -39.335938 11.546875 -41.609375 C 13.703125 -43.878906 16.265625 -45.664062 19.234375 -46.96875 C 22.210938 -48.269531 25.46875 -48.921875 29 -48.921875 C 31.195312 -48.921875 33.175781 -48.738281 34.9375 -48.375 C 36.707031 -48.007812 38.347656 -47.492188 39.859375 -46.828125 C 41.367188 -46.160156 42.765625 -45.359375 44.046875 -44.421875 C 45.328125 -43.484375 46.566406 -42.441406 47.765625 -41.296875 L 44.046875 -37.3125 C 41.984375 -39.238281 39.769531 -40.816406 37.40625 -42.046875 C 35.050781 -43.285156 32.226562 -43.90625 28.9375 -43.90625 C 26.269531 -43.90625 23.800781 -43.398438 21.53125 -42.390625 C 19.269531 -41.390625 17.300781 -39.992188 15.625 -38.203125 C 13.957031 -36.421875 12.65625 -34.328125 11.71875 -31.921875 C 10.78125 -29.515625 10.3125 -26.9375 10.3125 -24.1875 L 10.3125 -24.046875 C 10.3125 -21.253906 10.78125 -18.65625 11.71875 -16.25 C 12.65625 -13.84375 13.957031 -11.742188 15.625 -9.953125 C 17.300781 -8.171875 19.269531 -6.765625 21.53125 -5.734375 C 23.800781 -4.703125 26.269531 -4.1875 28.9375 -4.1875 C 32.226562 -4.1875 35.066406 -4.789062 37.453125 -6 C 39.835938 -7.21875 42.175781 -8.925781 44.46875 -11.125 L 48.03125 -7.625 C 46.789062 -6.34375 45.492188 -5.1875 44.140625 -4.15625 C 42.796875 -3.125 41.34375 -2.238281 39.78125 -1.5 C 38.226562 -0.769531 36.554688 -0.203125 34.765625 0.203125 C 32.984375 0.617188 30.992188 0.828125 28.796875 0.828125 Z M 28.796875 0.828125 "/></g></g></g><g fill="#0099c8" fill-opacity="1"><g transform="translate(395.771309, 462.540232)"><g><path d="M 24.59375 -48.453125 L 29.6875 -48.453125 L 51.609375 0 L 45.765625 0 L 40.125 -12.71875 L 13.953125 -12.71875 L 8.25 0 L 2.6875 0 Z M 38 -17.59375 L 27.078125 -42.125 L 16.078125 -17.59375 Z M 38 -17.59375 "/></g></g></g><g fill="#0099c8" fill-opacity="1"><g transform="translate(461.456811, 462.540232)"><g><path d="M 6.796875 -48.109375 L 23.5 -48.109375 C 27.257812 -48.109375 30.707031 -47.5 33.84375 -46.28125 C 36.976562 -45.070312 39.679688 -43.390625 41.953125 -41.234375 C 44.222656 -39.078125 45.972656 -36.546875 47.203125 -33.640625 C 48.441406 -30.734375 49.0625 -27.582031 49.0625 -24.1875 L 49.0625 -24.046875 C 49.0625 -20.660156 48.441406 -17.5 47.203125 -14.5625 C 45.972656 -11.632812 44.222656 -9.09375 41.953125 -6.9375 C 39.679688 -4.78125 36.976562 -3.082031 33.84375 -1.84375 C 30.707031 -0.613281 27.257812 0 23.5 0 L 6.796875 0 Z M 12.234375 -43.09375 L 12.234375 -5.015625 L 23.5 -5.015625 C 26.519531 -5.015625 29.265625 -5.492188 31.734375 -6.453125 C 34.210938 -7.421875 36.3125 -8.75 38.03125 -10.4375 C 39.75 -12.132812 41.078125 -14.140625 42.015625 -16.453125 C 42.960938 -18.765625 43.4375 -21.253906 43.4375 -23.921875 L 43.4375 -24.046875 C 43.4375 -26.703125 42.960938 -29.1875 42.015625 -31.5 C 41.078125 -33.820312 39.75 -35.835938 38.03125 -37.546875 C 36.3125 -39.265625 34.210938 -40.617188 31.734375 -41.609375 C 29.265625 -42.597656 26.519531 -43.09375 23.5 -43.09375 Z M 12.234375 -43.09375 "/></g></g></g><g fill="#0099c8" fill-opacity="1"><g transform="translate(526.592664, 462.540232)"><g><path d="M 6.796875 -48.109375 L 41.578125 -48.109375 L 41.578125 -43.15625 L 12.234375 -43.15625 L 12.234375 -26.734375 L 38.484375 -26.734375 L 38.484375 -21.78125 L 12.234375 -21.78125 L 12.234375 -4.953125 L 41.921875 -4.953125 L 41.921875 0 L 6.796875 0 Z M 6.796875 -48.109375 "/></g></g></g><g fill="#0099c8" fill-opacity="1"><g transform="translate(584.033304, 462.540232)"><g><path d="M 6.796875 -48.109375 L 12.296875 -48.109375 L 29.828125 -21.859375 L 47.34375 -48.109375 L 52.84375 -48.109375 L 52.84375 0 L 47.421875 0 L 47.421875 -38.96875 L 29.890625 -13.1875 L 29.625 -13.1875 L 12.09375 -38.890625 L 12.09375 0 L 6.796875 0 Z M 6.796875 -48.109375 "/></g></g></g><g fill="#0099c8" fill-opacity="1"><g transform="translate(655.077948, 462.540232)"><g><path d="M 21.859375 -19.03125 L 1.859375 -48.109375 L 8.453125 -48.109375 L 24.671875 -24.046875 L 41.03125 -48.109375 L 47.34375 -48.109375 L 27.34375 -19.109375 L 27.34375 0 L 21.859375 0 Z M 21.859375 -19.03125 "/></g></g></g></svg>
